{
  "accessors": [
    {
      "bufferView": 2,
      "componentType": 5126,
      "count": 6,
      "max": [
        2.2566380500793457,
        -0.7611600160598755,
        5.203527927398682
      ],
      "min": [
        2.252573013305664,
        -0.9273189902305603,
        5.199729919433594
      ],
      "type": "VEC3"
    },
    {
      "bufferView": 2,
      "byteOffset": 72,
      "componentType": 5126,
      "count": 6,
      "max": [
        0.0,
        1.0,
        0.0
      ],
      "min": [
        0.0,
        -1.0,
        0.0
      ],
      "type": "VEC3"
    },
    {
      "bufferView": 1,
      "componentType": 5126,
      "count": 6,
      "max": [
        0.4774540066719055,
        0.916483998298645
      ],
      "min": [
        0.4754520058631897,
        0.9151790142059326
      ],
      "type": "VEC2"
    },
    {
      "bufferView": 0,
      "componentType": 5125,
      "count": 6,
      "type": "SCALAR"
    },
    {
      "bufferView": 2,
      "byteOffset": 144,
      "componentType": 5126,
      "count": 8331,
      "max": [
        7.68537712097168,
        -0.47733399271965027,
        8.700422286987305
      ],
      "min": [
        -6.960485935211182,
        -1.229099988937378,
        2.958348035812378
      ],
      "type": "VEC3"
    },
    {
      "bufferView": 2,
      "byteOffset": 100116,
      "componentType": 5126,
      "count": 8331,
      "max": [
        1.0,
        1.0,
        1.0
      ],
      "min": [
        -1.0,
        -1.0,
        -1.0
      ],
      "type": "VEC3"
    },
    {
      "bufferView": 1,
      "byteOffset": 48,
      "componentType": 5126,
      "count": 8331,
      "max": [
        1.0,
        1.0
      ],
      "min": [
        0.0,
        0.0
      ],
      "type": "VEC2"
    },
    {
      "bufferView": 0,
      "byteOffset": 24,
      "componentType": 5125,
      "count": 33174,
      "type": "SCALAR"
    },
    {
      "bufferView": 2,
      "byteOffset": 200088,
      "componentType": 5126,
      "count": 5439,
      "max": [
        7.261614799499512,
        -0.4273799955844879,
        8.572150230407715
      ],
      "min": [
        -6.667596817016602,
        -1.288167953491211,
        3.5295000076293945
      ],
      "type": "VEC3"
    },
    {
      "bufferView": 2,
      "byteOffset": 265356,
      "componentType": 5126,
      "count": 5439,
      "max": [
        1.0,
        1.0,
        1.0
      ],
      "min": [
        -1.0,
        -1.0,
        -1.0
      ],
      "type": "VEC3"
    },
    {
      "bufferView": 1,
      "byteOffset": 66696,
      "componentType": 5126,
      "count": 5439,
      "max": [
        0.9998329877853394,
        1.0
      ],
      "min": [
        0.00011600000289035961,
        0.0
      ],
      "type": "VEC2"
    },
    {
      "bufferView": 0,
      "byteOffset": 132720,
      "componentType": 5125,
      "count": 29457,
      "type": "SCALAR"
    },
    {
      "bufferView": 2,
      "byteOffset": 330624,
      "componentType": 5126,
      "count": 9656,
      "max": [
        9.1354398727417,
        -0.32655099034309387,
        8.488962173461914
      ],
      "min": [
        -5.435272216796875,
        -1.388996958732605,
        2.5202438831329346
      ],
      "type": "VEC3"
    },
    {
      "bufferView": 2,
      "byteOffset": 446496,
      "componentType": 5126,
      "count": 9656,
      "max": [
        1.0,
        1.0,
        1.0
      ],
      "min": [
        -1.0,
        -1.0,
        -1.0
      ],
      "type": "VEC3"
    },
    {
      "bufferView": 1,
      "byteOffset": 110208,
      "componentType": 5126,
      "count": 9656,
      "max": [
        1.0,
        1.0
      ],
      "min": [
        0.0,
        0.0
      ],
      "type": "VEC2"
    },
    {
      "bufferView": 0,
      "byteOffset": 250548,
      "componentType": 5125,
      "count": 40296,
      "type": "SCALAR"
    },
    {
      "bufferView": 2,
      "byteOffset": 562368,
      "componentType": 5126,
      "count": 7495,
      "max": [
        6.871121883392334,
        -0.5395740270614624,
        7.682239055633545
      ],
      "min": [
        -7.0678791999816895,
        -1.2441320419311523,
        3.2188949584960938
      ],
      "type": "VEC3"
    },
    {
      "bufferView": 2,
      "byteOffset": 652308,
      "componentType": 5126,
      "count": 7495,
      "max": [
        1.0,
        1.0,
        1.0
      ],
      "min": [
        -1.0,
        -1.0,
        -1.0
      ],
      "type": "VEC3"
    },
    {
      "bufferView": 1,
      "byteOffset": 187456,
      "componentType": 5126,
      "count": 7495,
      "max": [
        1.0,
        1.0
      ],
      "min": [
        0.0,
        0.0
      ],
      "type": "VEC2"
    },
    {
      "bufferView": 0,
      "byteOffset": 411732,
      "componentType": 5125,
      "count": 35610,
      "type": "SCALAR"
    },
    {
      "bufferView": 2,
      "byteOffset": 742248,
      "componentType": 5126,
      "count": 4699,
      "max": [
        8.179677963256836,
        -0.6004760265350342,
        7.676140785217285
      ],
      "min": [
        -3.850382089614868,
        -1.2441320419311523,
        3.87126088142395
      ],
      "type": "VEC3"
    },
    {
      "bufferView": 2,
      "byteOffset": 798636,
      "componentType": 5126,
      "count": 4699,
      "max": [
        1.0,
        1.0,
        1.0
      ],
      "min": [
        -1.0,
        -1.0,
        -1.0
      ],
      "type": "VEC3"
    },
    {
      "bufferView": 1,
      "byteOffset": 247416,
      "componentType": 5126,
      "count": 4699,
      "max": [
        0.9980080127716064,
        1.0
      ],
      "min": [
        0.033854998648166656,
        0.0
      ],
      "type": "VEC2"
    },
    {
      "bufferView": 0,
      "byteOffset": 554172,
      "componentType": 5125,
      "count": 25032,
      "type": "SCALAR"
    },
    {
      "bufferView": 2,
      "byteOffset": 855024,
      "componentType": 5126,
      "count": 6324,
      "max": [
        -6.551386833190918,
        -0.7094830274581909,
        6.206723213195801
      ],
      "min": [
        -8.261358261108398,
        -1.002223014831543,
        5.916452884674072
      ],
      "type": "VEC3"
    },
    {
      "bufferView": 2,
      "byteOffset": 930912,
      "componentType": 5126,
      "count": 6324,
      "max": [
        0.9972378611564636,
        1.0,
        1.0
      ],
      "min": [
        -1.0,
        -1.0,
        -1.0
      ],
      "type": "VEC3"
    },
    {
      "bufferView": 1,
      "byteOffset": 285008,
      "componentType": 5126,
      "count": 6324,
      "max": [
        1.0,
        1.0
      ],
      "min": [
        0.0,
        0.006060000043362379
      ],
      "type": "VEC2"
    },
    {
      "bufferView": 0,
      "byteOffset": 654300,
      "componentType": 5125,
      "count": 18894,
      "type": "SCALAR"
    },
    {
      "bufferView": 2,
      "byteOffset": 1006800,
      "componentType": 5126,
      "count": 10524,
      "max": [
        -6.144918918609619,
        -0.6346570253372192,
        7.290449142456055
      ],
      "min": [
        -9.308268547058105,
        -1.0770490169525146,
        6.800312042236328
      ],
      "type": "VEC3"
    },
    {
      "bufferView": 2,
      "byteOffset": 1133088,
      "componentType": 5126,
      "count": 10524,
      "max": [
        0.9990289807319641,
        1.0,
        1.0
      ],
      "min": [
        -1.0,
        -1.0,
        -1.0
      ],
      "type": "VEC3"
    },
    {
      "bufferView": 1,
      "byteOffset": 335600,
      "componentType": 5126,
      "count": 10524,
      "max": [
        1.0,
        1.0
      ],
      "min": [
        0.0,
        0.0027310000732541084
      ],
      "type": "VEC2"
    },
    {
      "bufferView": 0,
      "byteOffset": 729876,
      "componentType": 5125,
      "count": 31494,
      "type": "SCALAR"
    },
    {
      "bufferView": 2,
      "byteOffset": 1259376,
      "componentType": 5126,
      "count": 1326,
      "max": [
        6.799838066101074,
        -0.4680219888687134,
        7.807243824005127
      ],
      "min": [
        -4.654612064361572,
        -1.2441320419311523,
        3.170696973800659
      ],
      "type": "VEC3"
    },
    {
      "bufferView": 2,
      "byteOffset": 1275288,
      "componentType": 5126,
      "count": 1326,
      "max": [
        0.9998068809509277,
        1.0,
        0.9999310970306396
      ],
      "min": [
        -0.9998293519020081,
        -1.0,
        -0.999883234500885
      ],
      "type": "VEC3"
    },
    {
      "bufferView": 1,
      "byteOffset": 419792,
      "componentType": 5126,
      "count": 1326,
      "max": [
        1.0,
        1.0
      ],
      "min": [
        0.0,
        0.0
      ],
      "type": "VEC2"
    },
    {
      "bufferView": 0,
      "byteOffset": 855852,
      "componentType": 5125,
      "count": 5274,
      "type": "SCALAR"
    }
  ],
  "asset": {
    "extras": {
      "author": "Karan Sahu (https://sketchfab.com/cgkaran)",
      "license": "CC-BY-4.0 (http://creativecommons.org/licenses/by/4.0/)",
      "source": "https://sketchfab.com/3d-models/sci-fi-m254-gun-high-poly-f372ff61e3ed4fbda1e2cde75bf98a8d",
      "title": "Sci Fi M254 Gun - High Poly"
    },
    "generator": "Sketchfab-12.66.0",
    "version": "2.0"
  },
  "bufferViews": [
    {
      "buffer": 0,
      "byteLength": 876948,
      "name": "floatBufferViews",
      "target": 34963
    },
    {
      "buffer": 0,
      "byteLength": 430400,
      "byteOffset": 876948,
      "byteStride": 8,
      "name": "floatBufferViews",
      "target": 34962
    },
    {
      "buffer": 0,
      "byteLength": 1291200,
      "byteOffset": 1307348,
      "byteStride": 12,
      "name": "floatBufferViews",
      "target": 34962
    }
  ],
  "buffers": [
    {
      "byteLength": 2598548,
      "uri": "scene.bin"
    }
  ],
  "extensionsRequired": [
    "KHR_materials_pbrSpecularGlossiness"
  ],
  "extensionsUsed": [
    "KHR_materials_pbrSpecularGlossiness"
  ],
  "materials": [
    {
      "doubleSided": true,
      "extensions": {
        "KHR_materials_pbrSpecularGlossiness": {
          "diffuseFactor": [
            0.64,
            0.64,
            0.64,
            1.0
          ],
          "glossinessFactor": 0.0,
          "specularFactor": [
            0.0,
            0.0,
            0.0
          ]
        }
      },
      "name": "blinn1SG"
    },
    {
      "doubleSided": true,
      "extensions": {
        "KHR_materials_pbrSpecularGlossiness": {
          "diffuseFactor": [
            0.03,
            0.03,
            0.03,
            1.0
          ],
          "glossinessFactor": 1.0,
          "specularFactor": [
            0.0,
            0.0,
            0.0
          ]
        }
      },
      "name": "blinn2SG"
    }
  ],
  "meshes": [
    {
      "name": "Object_0",
      "primitives": [
        {
          "attributes": {
            "NORMAL": 1,
            "POSITION": 0,
            "TEXCOORD_0": 2
          },
          "indices": 3,
          "material": 1,
          "mode": 4
        }
      ]
    },
    {
      "name": "Object_1",
      "primitives": [
        {
          "attributes": {
            "NORMAL": 5,
            "POSITION": 4,
            "TEXCOORD_0": 6
          },
          "indices": 7,
          "material": 0,
          "mode": 4
        }
      ]
    },
    {
      "name": "Object_2",
      "primitives": [
        {
          "attributes": {
            "NORMAL": 9,
            "POSITION": 8,
            "TEXCOORD_0": 10
          },
          "indices": 11,
          "material": 0,
          "mode": 4
        }
      ]
    },
    {
      "name": "Object_3",
      "primitives": [
        {
          "attributes": {
            "NORMAL": 13,
            "POSITION": 12,
            "TEXCOORD_0": 14
          },
          "indices": 15,
          "material": 1,
          "mode": 4
        }
      ]
    },
    {
      "name": "Object_4",
      "primitives": [
        {
          "attributes": {
            "NORMAL": 17,
            "POSITION": 16,
            "TEXCOORD_0": 18
          },
          "indices": 19,
          "material": 1,
          "mode": 4
        }
      ]
    },
    {
      "name": "Object_5",
      "primitives": [
        {
          "attributes": {
            "NORMAL": 21,
            "POSITION": 20,
            "TEXCOORD_0": 22
          },
          "indices": 23,
          "material": 1,
          "mode": 4
        }
      ]
    },
    {
      "name": "Object_6",
      "primitives": [
        {
          "attributes": {
            "NORMAL": 25,
            "POSITION": 24,
            "TEXCOORD_0": 26
          },
          "indices": 27,
          "material": 1,
          "mode": 4
        }
      ]
    },
    {
      "name": "Object_7",
      "primitives": [
        {
          "attributes": {
            "NORMAL": 29,
            "POSITION": 28,
            "TEXCOORD_0": 30
          },
          "indices": 31,
          "material": 1,
          "mode": 4
        }
      ]
    },
    {
      "name": "Object_8",
      "primitives": [
        {
          "attributes": {
            "NORMAL": 33,
            "POSITION": 32,
            "TEXCOORD_0": 34
          },
          "indices": 35,
          "material": 1,
          "mode": 4
        }
      ]
    }
  ],
  "nodes": [
    {
      "children": [
        1
      ],
      "matrix": [
        0.06681599467992783,
        0.0,
        0.0,
        0.0,
        0.0,
        1.4836131141377568e-17,
        -0.06681599467992783,
        0.0,
        0.0,
        0.06681599467992783,
        1.4836131141377568e-17,
        0.0,
        0.0,
        0.0,
        0.0,
        1.0
      ],
      "name": "Sketchfab_model"
    },
    {
      "children": [
        2,
        3,
        4,
        5,
        6,
        7,
        8,
        9,
        10
      ],
      "name": "sci fi m254 gun - high poly.obj.cleaner.materialmerger.gles"
    },
    {
      "mesh": 0,
      "name": "Object_2"
    },
    {
      "mesh": 1,
      "name": "Object_3"
    },
    {
      "mesh": 2,
      "name": "Object_4"
    },
    {
      "mesh": 3,
      "name": "Object_5"
    },
    {
      "mesh": 4,
      "name": "Object_6"
    },
    {
      "mesh": 5,
      "name": "Object_7"
    },
    {
      "mesh": 6,
      "name": "Object_8"
    },
    {
      "mesh": 7,
      "name": "Object_9"
    },
    {
      "mesh": 8,
      "name": "Object_10"
    }
  ],
  "scene": 0,
  "scenes": [
    {
      "name": "Sketchfab_Scene",
      "nodes": [
        0
      ]
    }
  ]
}
